<svg width="16" height="15" viewBox="0 0 16 15" fill="none" xmlns="http://www.w3.org/2000/svg">
<path d="M1.58362 0H5.54265C6.41726 0 7.12627 0.662191 7.12627 1.47905V6.6557C7.12627 7.47256 6.41726 8.13475 5.54265 8.13475H1.58362C0.709009 8.13475 0 7.47256 0 6.6557V1.47905C0 0.662191 0.709009 0 1.58362 0Z" fill="#444444"/>
<path d="M10.4861 0H14.4246C15.2947 0 16 0.664204 16 1.48354V3.70885C16 4.52819 15.2947 5.19239 14.4246 5.19239H10.4861C9.61599 5.19239 8.91065 4.52819 8.91065 3.70885V1.48354C8.91065 0.664204 9.61599 0 10.4861 0Z" fill="#444444"/>
<path d="M5.54265 9.38946H1.58362C0.709009 9.38946 0 10.0537 0 10.873V13.0983C0 13.9176 0.709009 14.5818 1.58362 14.5818H5.54265C6.41726 14.5818 7.12627 13.9176 7.12627 13.0983V10.873C7.12627 10.0537 6.41726 9.38946 5.54265 9.38946Z" fill="#444444"/>
<path d="M10.4861 6.44705H14.4246C15.2947 6.44705 16 7.11206 16 7.93239V13.1311C16 13.9514 15.2947 14.6164 14.4246 14.6164H10.4861C9.61599 14.6164 8.91065 13.9514 8.91065 13.1311V7.93239C8.91065 7.11206 9.61599 6.44705 10.4861 6.44705Z" fill="#444444"/>
</svg>
