<svg width="17" height="16" viewBox="0 0 17 16" fill="none" xmlns="http://www.w3.org/2000/svg">
<path d="M11.2361 2.7756H3.21274C2.97476 2.7756 2.75378 2.78422 2.5498 2.79284C0.535457 2.91354 0 3.66364 0 5.99153V6.49159C0 6.96579 0.382469 7.35377 0.849932 7.35377H13.5989C14.0664 7.35377 14.4488 6.96579 14.4488 6.49159V5.99153C14.4488 3.42223 13.8029 2.7756 11.2361 2.7756Z" fill="#444444"/>
<path d="M0.849932 8.64582C0.382469 8.64582 0 9.0338 0 9.508V12.0169C0 14.5862 0.645948 15.2328 3.21274 15.2328H11.2361C13.7604 15.2328 14.4233 14.6121 14.4488 12.1549V9.508C14.4488 9.0338 14.0664 8.64582 13.5989 8.64582H0.849932ZM4.21566 13.1291H2.76228C2.41381 13.1291 2.12483 12.836 2.12483 12.4825C2.12483 12.129 2.41381 11.8359 2.76228 11.8359H4.22416C4.57263 11.8359 4.86161 12.129 4.86161 12.4825C4.86161 12.836 4.57263 13.1291 4.21566 13.1291ZM8.96678 13.1291H6.04302C5.69454 13.1291 5.40557 12.836 5.40557 12.4825C5.40557 12.129 5.69454 11.8359 6.04302 11.8359H8.96678C9.31526 11.8359 9.60423 12.129 9.60423 12.4825C9.60423 12.836 9.32375 13.1291 8.96678 13.1291Z" fill="#444444"/>
<path d="M17 8.62186V4.10402C17 1.40541 15.4786 0.232849 13.1838 0.232849H5.59389C4.94794 0.232849 4.36999 0.327688 3.86003 0.525989C3.46056 0.672559 3.10359 0.888103 2.81461 1.17262C2.66162 1.31919 2.78061 1.5606 3.00159 1.5606H12.2404C14.1527 1.5606 15.6996 3.12976 15.6996 5.06966V11.2515C15.6996 11.467 15.9291 11.5877 16.0821 11.4326C16.6685 10.8032 17 9.88063 17 8.62186Z" fill="#444444"/>
</svg>
