<svg width="13" height="13" viewBox="0 0 13 13" fill="none" xmlns="http://www.w3.org/2000/svg">
<path d="M5.71404 1.82088C6.33845 1.09319 7.46454 1.09319 8.08895 1.82088C8.41345 2.19907 8.8987 2.40006 9.39557 2.3621C10.3517 2.28907 11.1479 3.08534 11.0749 4.04142C11.0369 4.53829 11.2379 5.02354 11.6161 5.34804C12.3438 5.97245 12.3438 7.09854 11.6161 7.72295C11.2379 8.04746 11.0369 8.5327 11.0749 9.02958C11.1479 9.98565 10.3517 10.7819 9.39557 10.7089C8.8987 10.6709 8.41345 10.8719 8.08895 11.2501C7.46454 11.9778 6.33845 11.9778 5.71404 11.2501C5.38953 10.8719 4.90429 10.6709 4.40741 10.7089C3.45134 10.7819 2.65507 9.98565 2.7281 9.02958C2.76606 8.5327 2.56506 8.04746 2.18688 7.72295C1.45919 7.09854 1.45919 5.97245 2.18688 5.34804C2.56506 5.02354 2.76606 4.53829 2.7281 4.04142C2.65507 3.08534 3.45134 2.28907 4.40741 2.3621C4.90429 2.40006 5.38953 2.19907 5.71404 1.82088Z" fill="#18BC7A"/>
<path d="M3.9975 6.24499L5.73992 7.98741L9.51517 4.21216" stroke="white"/>
</svg>
