<svg width="14" height="13" viewBox="0 0 14 13" fill="none" xmlns="http://www.w3.org/2000/svg">
<path fill-rule="evenodd" clip-rule="evenodd" d="M8.30726 2.70716C8.30726 1.40016 9.41144 0.340576 10.7736 0.340576C12.1357 0.340576 13.2399 1.40016 13.2399 2.70716C13.2399 4.01417 12.1357 5.07375 10.7736 5.07375C9.41144 5.07375 8.30726 4.01417 8.30726 2.70716ZM3.37426 7.44034C2.01216 7.44034 0.907928 8.49986 0.907928 9.80693C0.907928 11.114 2.01216 12.1735 3.37426 12.1735C4.73635 12.1735 5.84059 11.114 5.84059 9.80693C5.84059 8.49986 4.73635 7.44034 3.37426 7.44034ZM10.7736 7.44034C9.41146 7.44034 8.30726 8.49988 8.30726 9.80693C8.30726 11.114 9.41146 12.1735 10.7736 12.1735C12.1357 12.1735 13.2399 11.114 13.2399 9.80693C13.2399 8.49988 12.1357 7.44034 10.7736 7.44034ZM3.37426 0.423706C2.01215 0.423706 0.907928 1.48327 0.907928 2.79029C0.907928 4.09732 2.01215 5.15688 3.37426 5.15688C4.73637 5.15688 5.84059 4.09732 5.84059 2.79029C5.84059 1.48327 4.73637 0.423706 3.37426 0.423706Z" fill="#202020"/>
</svg>
