<svg width="15" height="16" viewBox="0 0 15 16" fill="none" xmlns="http://www.w3.org/2000/svg">
<path d="M5.35729 12.7254C8.90771 12.7254 11.7859 9.8473 11.7859 6.29682C11.7859 6.08109 11.7752 5.86784 11.7545 5.65757C13.6633 6.47699 15.0001 8.37364 15.0001 10.5825C15.0001 13.5413 12.6016 15.9397 9.64293 15.9397C7.43406 15.9397 5.5374 14.6029 4.71794 12.6941C4.92823 12.7148 5.14149 12.7254 5.35729 12.7254Z" fill="#444444"/>
<path d="M5.35718 11.6541C8.31587 11.6541 10.7144 9.25557 10.7144 6.29688C10.7144 3.33819 8.31587 0.939697 5.35718 0.939697C2.39849 0.939697 0 3.33819 0 6.29688C0 9.25557 2.39849 11.6541 5.35718 11.6541Z" fill="#444444"/>
</svg>
