<svg width="15" height="16" viewBox="0 0 15 16" fill="none" xmlns="http://www.w3.org/2000/svg">
<path d="M0.0252902 9.9774C0.050533 10.0728 0.0944659 10.1621 0.154539 10.2404C0.214612 10.3186 0.289628 10.3842 0.375234 10.4332L1.8088 11.2622V12.9134C1.8088 13.1125 1.88792 13.3035 2.02875 13.4444C2.16958 13.5852 2.36059 13.6643 2.55975 13.6643H4.2111L5.04015 15.0985C5.14002 15.2706 5.30403 15.3962 5.49629 15.4477C5.68854 15.4992 5.89338 15.4725 6.06595 15.3733L7.49951 14.5451L8.93383 15.3741C9.1064 15.4732 9.31124 15.5 9.50349 15.4485C9.69575 15.397 9.85976 15.2714 9.95963 15.0992L10.7879 13.6658H12.4393C12.6384 13.6658 12.8294 13.5867 12.9703 13.4459C13.1111 13.305 13.1902 13.114 13.1902 12.9149V11.2637L14.6238 10.4347C14.7093 10.3855 14.7842 10.3199 14.8443 10.2416C14.9044 10.1634 14.9484 10.0741 14.974 9.97883C14.9995 9.88356 15.006 9.78418 14.9931 9.6864C14.9801 9.58862 14.948 9.49434 14.8986 9.40897L14.0703 7.97476L14.8994 6.54131C14.999 6.36884 15.026 6.16389 14.9744 5.97153C14.9229 5.77917 14.797 5.61517 14.6245 5.51559L13.191 4.6866V3.03539C13.191 2.83624 13.1119 2.64524 12.971 2.50442C12.8302 2.3636 12.6392 2.28449 12.44 2.28449H10.7887L9.96038 0.851036C9.8606 0.6788 9.69674 0.553013 9.50455 0.501119C9.4093 0.475342 9.30988 0.468706 9.21205 0.481595C9.11421 0.494484 9.01991 0.526642 8.93458 0.576209L7.49951 1.40444L6.06595 0.575458C5.98064 0.525925 5.88639 0.49372 5.78861 0.480689C5.69083 0.467658 5.59144 0.474058 5.49613 0.499521C5.40083 0.524984 5.31149 0.56901 5.23325 0.629074C5.155 0.689137 5.08938 0.764056 5.04015 0.849534L4.2111 2.28374H2.55975C2.36059 2.28374 2.16958 2.36285 2.02875 2.50367C1.88792 2.64449 1.8088 2.83549 1.8088 3.03463V4.68585L0.375234 5.51559C0.20304 5.61543 0.0774805 5.77949 0.0260962 5.97178C-0.0252881 6.16407 0.00169842 6.36889 0.101136 6.54131L0.929436 7.97476L0.100385 9.40822C0.00118129 9.58059 -0.0258141 9.7852 0.0252902 9.9774Z" fill="#444444"/>
</svg>
