<svg width="16" height="17" viewBox="0 0 16 17" fill="none" xmlns="http://www.w3.org/2000/svg">
<path fill-rule="evenodd" clip-rule="evenodd" d="M6.01412 1.85917C5.83629 1.81152 5.59548 1.80465 4.8 1.80465H4.4C3.82993 1.80465 3.44243 1.80508 3.14128 1.82563C2.84732 1.84569 2.6945 1.88221 2.58771 1.92644C2.19567 2.08883 1.88418 2.40031 1.72179 2.79235C1.67755 2.89915 1.64104 3.05196 1.62098 3.34592C1.60043 3.64706 1.6 4.03455 1.6 4.60462V11.8046C1.6 12.3746 1.60043 12.7621 1.62098 13.0632C1.64104 13.3572 1.67755 13.5101 1.72181 13.6169C1.88422 14.0089 2.19571 14.3204 2.58764 14.4827L2.58775 14.4827C2.69454 14.527 2.84734 14.5635 3.14129 14.5835C3.44244 14.6041 3.82992 14.6045 4.4 14.6045H4.8C5.59547 14.6045 5.83631 14.5977 6.01415 14.55C6.56624 14.4021 6.99754 13.9708 7.14549 13.4187C7.19313 13.2409 7.2 13 7.2 12.2046C7.2 11.7627 7.55817 11.4046 8 11.4046C8.44183 11.4046 8.8 11.7627 8.8 12.2046C8.8 12.2418 8.80002 12.2785 8.80004 12.3146C8.80038 12.9509 8.80064 13.4235 8.69099 13.8327L8.69098 13.8328C8.39508 14.937 7.53248 15.7996 6.42823 16.0955L6.42818 16.0955C6.01888 16.2052 5.54637 16.2049 4.91005 16.2046C4.8739 16.2045 4.83723 16.2045 4.8 16.2045H4.37257C3.83675 16.2045 3.39445 16.2045 3.03236 16.1798C2.65693 16.1542 2.30963 16.0994 1.97537 15.9609C1.19125 15.6361 0.568346 15.0131 0.243596 14.2292L0.243567 14.2291C0.105134 13.8949 0.0503074 13.5476 0.0246919 13.1722C-1.27602e-05 12.8101 -6.89942e-06 12.3678 2.41692e-07 11.832V4.57721C-6.89942e-06 4.04138 -1.27602e-05 3.59909 0.024692 3.23701C0.0503071 2.86158 0.105134 2.51431 0.243585 2.18006C0.568364 1.39598 1.19133 0.773025 1.97541 0.448249C2.30966 0.309799 2.65694 0.254973 3.03237 0.229358C3.39446 0.204654 3.83675 0.20466 4.37259 0.204667L4.8 0.204667C4.83723 0.204667 4.87391 0.204647 4.91006 0.204628C5.54637 0.204283 6.0189 0.204027 6.42822 0.3137C7.53246 0.609587 8.39508 1.47212 8.69098 2.57642L8.69099 2.57646C8.80064 2.98576 8.80038 3.45826 8.80004 4.09456C8.80002 4.13072 8.8 4.1674 8.8 4.20463C8.8 4.64645 8.44183 5.00462 8 5.00462C7.55817 5.00462 7.2 4.64645 7.2 4.20463C7.2 3.40916 7.19313 3.16833 7.14549 2.99048C6.99753 2.43838 6.56624 2.00711 6.01412 1.85917ZM10.6343 3.63895C10.9467 3.32653 11.4533 3.32653 11.7657 3.63895L15.7657 7.63891C16.0781 7.95133 16.0781 8.45785 15.7657 8.77027L11.7657 12.7702C11.4533 13.0826 10.9467 13.0826 10.6343 12.7702C10.3219 12.4578 10.3219 11.9513 10.6343 11.6389L13.2686 9.00458H5.6C5.15817 9.00458 4.8 8.64641 4.8 8.20459C4.8 7.76277 5.15817 7.4046 5.6 7.4046H13.2686L10.6343 4.77031C10.3219 4.45789 10.3219 3.95136 10.6343 3.63895Z" fill="#444444"/>
</svg>
