<svg width="18" height="18" viewBox="0 0 18 18" fill="none" xmlns="http://www.w3.org/2000/svg">
<mask id="path-1-outside-1_105_100" maskUnits="userSpaceOnUse" x="0" y="0.204346" width="18" height="18" fill="black">
<rect fill="white" y="0.204346" width="18" height="18"/>
<path fill-rule="evenodd" clip-rule="evenodd" d="M4.64977 1.4376C5.83478 1.29697 7.36892 1.20435 9 1.20435C10.6311 1.20435 12.1652 1.29697 13.3502 1.4376C13.9413 1.50775 14.4572 1.5912 14.86 1.68437C15.0606 1.73078 15.2459 1.78246 15.404 1.84096C15.5404 1.8914 15.7373 1.97464 15.8989 2.1217C16.0516 2.26059 16.1419 2.43556 16.1898 2.53952L15.9016 2.67245L16.1898 2.53952C16.2449 2.659 16.2896 2.78736 16.3262 2.908C16.3997 3.15008 16.4646 3.44033 16.5218 3.7413C16.6372 4.348 16.7387 5.09108 16.8175 5.78756C16.8241 5.84574 16.8306 5.90454 16.8369 5.96393C16.8476 6.02142 16.8537 6.08069 16.855 6.14111C16.8801 6.3952 16.9024 6.65945 16.9215 6.93173C16.9714 7.64183 17 8.41044 17 9.20445C17 10.3016 16.9454 11.3519 16.855 12.2679C16.8537 12.3281 16.8476 12.3872 16.8369 12.4445C16.8306 12.5041 16.8241 12.563 16.8175 12.6213C16.7387 13.3177 16.6372 14.0608 16.5218 14.6675C16.4646 14.9684 16.3997 15.2586 16.3262 15.5007C16.2896 15.6214 16.2449 15.7497 16.1898 15.8692C16.1419 15.9732 16.0516 16.1481 15.8989 16.287L15.6914 16.0588L15.899 16.287C15.8989 16.287 15.8989 16.287 15.8989 16.287C15.7373 16.4341 15.5404 16.5173 15.404 16.5678C15.2459 16.6262 15.0606 16.6779 14.86 16.7243C14.4572 16.8175 13.9413 16.9009 13.3502 16.9711C12.1652 17.1117 10.6311 17.2043 9 17.2043C7.36892 17.2043 5.83479 17.1117 4.64977 16.9711C4.05867 16.9009 3.54276 16.8175 3.13997 16.7243C2.93936 16.6779 2.75412 16.6262 2.59595 16.5678C2.45953 16.5173 2.26266 16.4341 2.101 16.287C1.90328 16.1071 1.79023 15.8566 1.72802 15.6999C1.65509 15.5163 1.59331 15.3053 1.53993 15.0874C1.43257 14.649 1.33842 14.0961 1.26022 13.485C1.10329 12.2585 1 10.713 1 9.20445C1 8.41037 1.0286 7.64175 1.0785 6.9317C1.14788 5.94425 1.25922 4.93448 1.39445 4.125C1.46165 3.72275 1.53833 3.34799 1.62489 3.0425C1.66799 2.89042 1.71916 2.73523 1.7811 2.59459C1.83495 2.4723 1.93364 2.27401 2.10099 2.12175L2.31463 2.35656L2.10099 2.12175C2.26265 1.97466 2.45952 1.89141 2.59595 1.84096C2.75412 1.78246 2.93936 1.73078 3.13996 1.68437C3.54275 1.5912 4.05866 1.50775 4.64977 1.4376ZM16.2066 6.04127C16.2001 5.9798 16.1935 5.91902 16.1867 5.85896L16.5021 5.82326L16.1867 5.85896C16.1087 5.16997 16.0093 4.44447 15.8981 3.85991C15.8427 3.56847 15.7827 3.30332 15.7187 3.09249L16.0224 3.00024L15.7187 3.09249C15.6867 2.98703 15.6517 2.88873 15.6133 2.80537C15.5754 2.72332 15.5282 2.64276 15.4717 2.59136L15.4717 2.59135C15.4037 2.5295 15.3022 2.48026 15.1838 2.43646C15.0599 2.39062 14.9028 2.34595 14.7169 2.30296C14.3449 2.21691 13.8539 2.13675 13.2754 2.0681C12.1183 1.93078 10.6093 1.83927 9 1.83927C7.39066 1.83927 5.88173 1.93078 4.72459 2.0681C4.14611 2.13675 3.65506 2.21691 3.28305 2.30296C3.09718 2.34595 2.94012 2.39062 2.81617 2.43646C2.69772 2.48026 2.59627 2.52951 2.52828 2.59137L2.52828 2.59137C2.46245 2.65127 2.4071 2.74845 2.36217 2.85048C2.31646 2.95427 2.2745 3.07888 2.23576 3.2156C2.15826 3.48913 2.08608 3.83819 2.02069 4.22962C1.88962 5.01424 1.78023 6.00317 1.71186 6.9762L1.39518 6.95395L1.71186 6.9762C1.66299 7.67155 1.63492 8.42532 1.63492 9.20445C1.63492 10.6872 1.73664 12.2058 1.89001 13.4044C1.9666 14.0029 2.05711 14.53 2.15662 14.9363C2.20631 15.1392 2.26004 15.3194 2.31812 15.4656C2.3748 15.6084 2.44458 15.7412 2.52828 15.8173L2.31464 16.0522L2.52828 15.8173C2.59627 15.8792 2.69772 15.9284 2.81617 15.9722L2.70606 16.27L2.81617 15.9722C2.94012 16.0181 3.09718 16.0628 3.28305 16.1057C3.65506 16.1918 4.14611 16.2719 4.72459 16.3406C5.88173 16.4779 7.39066 16.5694 9 16.5694C10.6093 16.5694 12.1183 16.4779 13.2754 16.3406C13.8539 16.2719 14.3449 16.1918 14.7169 16.1057C14.9028 16.0628 15.0599 16.0181 15.1838 15.9722C15.3022 15.9285 15.4037 15.8792 15.4717 15.8174L15.4717 15.8173C15.5282 15.766 15.5754 15.6854 15.6133 15.6033C15.6517 15.52 15.6867 15.4217 15.7187 15.3162L15.9683 15.392L15.7187 15.3162C15.7827 15.1054 15.8427 14.8403 15.8981 14.5488C16.0093 13.9643 16.1087 13.2389 16.1867 12.5499C16.1936 12.4888 16.2003 12.427 16.2069 12.3644C16.208 12.3545 16.2095 12.3446 16.2114 12.3348C16.2169 12.3077 16.2201 12.2786 16.2203 12.2478C16.2203 12.238 16.2209 12.2283 16.2218 12.2185C16.3109 11.3209 16.3651 10.2866 16.3651 9.20445C16.3651 8.42637 16.3371 7.67355 16.2883 6.97893L16.2066 6.04127Z"/>
</mask>
<path fill-rule="evenodd" clip-rule="evenodd" d="M4.64977 1.4376C5.83478 1.29697 7.36892 1.20435 9 1.20435C10.6311 1.20435 12.1652 1.29697 13.3502 1.4376C13.9413 1.50775 14.4572 1.5912 14.86 1.68437C15.0606 1.73078 15.2459 1.78246 15.404 1.84096C15.5404 1.8914 15.7373 1.97464 15.8989 2.1217C16.0516 2.26059 16.1419 2.43556 16.1898 2.53952L15.9016 2.67245L16.1898 2.53952C16.2449 2.659 16.2896 2.78736 16.3262 2.908C16.3997 3.15008 16.4646 3.44033 16.5218 3.7413C16.6372 4.348 16.7387 5.09108 16.8175 5.78756C16.8241 5.84574 16.8306 5.90454 16.8369 5.96393C16.8476 6.02142 16.8537 6.08069 16.855 6.14111C16.8801 6.3952 16.9024 6.65945 16.9215 6.93173C16.9714 7.64183 17 8.41044 17 9.20445C17 10.3016 16.9454 11.3519 16.855 12.2679C16.8537 12.3281 16.8476 12.3872 16.8369 12.4445C16.8306 12.5041 16.8241 12.563 16.8175 12.6213C16.7387 13.3177 16.6372 14.0608 16.5218 14.6675C16.4646 14.9684 16.3997 15.2586 16.3262 15.5007C16.2896 15.6214 16.2449 15.7497 16.1898 15.8692C16.1419 15.9732 16.0516 16.1481 15.8989 16.287L15.6914 16.0588L15.899 16.287C15.8989 16.287 15.8989 16.287 15.8989 16.287C15.7373 16.4341 15.5404 16.5173 15.404 16.5678C15.2459 16.6262 15.0606 16.6779 14.86 16.7243C14.4572 16.8175 13.9413 16.9009 13.3502 16.9711C12.1652 17.1117 10.6311 17.2043 9 17.2043C7.36892 17.2043 5.83479 17.1117 4.64977 16.9711C4.05867 16.9009 3.54276 16.8175 3.13997 16.7243C2.93936 16.6779 2.75412 16.6262 2.59595 16.5678C2.45953 16.5173 2.26266 16.4341 2.101 16.287C1.90328 16.1071 1.79023 15.8566 1.72802 15.6999C1.65509 15.5163 1.59331 15.3053 1.53993 15.0874C1.43257 14.649 1.33842 14.0961 1.26022 13.485C1.10329 12.2585 1 10.713 1 9.20445C1 8.41037 1.0286 7.64175 1.0785 6.9317C1.14788 5.94425 1.25922 4.93448 1.39445 4.125C1.46165 3.72275 1.53833 3.34799 1.62489 3.0425C1.66799 2.89042 1.71916 2.73523 1.7811 2.59459C1.83495 2.4723 1.93364 2.27401 2.10099 2.12175L2.31463 2.35656L2.10099 2.12175C2.26265 1.97466 2.45952 1.89141 2.59595 1.84096C2.75412 1.78246 2.93936 1.73078 3.13996 1.68437C3.54275 1.5912 4.05866 1.50775 4.64977 1.4376ZM16.2066 6.04127C16.2001 5.9798 16.1935 5.91902 16.1867 5.85896L16.5021 5.82326L16.1867 5.85896C16.1087 5.16997 16.0093 4.44447 15.8981 3.85991C15.8427 3.56847 15.7827 3.30332 15.7187 3.09249L16.0224 3.00024L15.7187 3.09249C15.6867 2.98703 15.6517 2.88873 15.6133 2.80537C15.5754 2.72332 15.5282 2.64276 15.4717 2.59136L15.4717 2.59135C15.4037 2.5295 15.3022 2.48026 15.1838 2.43646C15.0599 2.39062 14.9028 2.34595 14.7169 2.30296C14.3449 2.21691 13.8539 2.13675 13.2754 2.0681C12.1183 1.93078 10.6093 1.83927 9 1.83927C7.39066 1.83927 5.88173 1.93078 4.72459 2.0681C4.14611 2.13675 3.65506 2.21691 3.28305 2.30296C3.09718 2.34595 2.94012 2.39062 2.81617 2.43646C2.69772 2.48026 2.59627 2.52951 2.52828 2.59137L2.52828 2.59137C2.46245 2.65127 2.4071 2.74845 2.36217 2.85048C2.31646 2.95427 2.2745 3.07888 2.23576 3.2156C2.15826 3.48913 2.08608 3.83819 2.02069 4.22962C1.88962 5.01424 1.78023 6.00317 1.71186 6.9762L1.39518 6.95395L1.71186 6.9762C1.66299 7.67155 1.63492 8.42532 1.63492 9.20445C1.63492 10.6872 1.73664 12.2058 1.89001 13.4044C1.9666 14.0029 2.05711 14.53 2.15662 14.9363C2.20631 15.1392 2.26004 15.3194 2.31812 15.4656C2.3748 15.6084 2.44458 15.7412 2.52828 15.8173L2.31464 16.0522L2.52828 15.8173C2.59627 15.8792 2.69772 15.9284 2.81617 15.9722L2.70606 16.27L2.81617 15.9722C2.94012 16.0181 3.09718 16.0628 3.28305 16.1057C3.65506 16.1918 4.14611 16.2719 4.72459 16.3406C5.88173 16.4779 7.39066 16.5694 9 16.5694C10.6093 16.5694 12.1183 16.4779 13.2754 16.3406C13.8539 16.2719 14.3449 16.1918 14.7169 16.1057C14.9028 16.0628 15.0599 16.0181 15.1838 15.9722C15.3022 15.9285 15.4037 15.8792 15.4717 15.8174L15.4717 15.8173C15.5282 15.766 15.5754 15.6854 15.6133 15.6033C15.6517 15.52 15.6867 15.4217 15.7187 15.3162L15.9683 15.392L15.7187 15.3162C15.7827 15.1054 15.8427 14.8403 15.8981 14.5488C16.0093 13.9643 16.1087 13.2389 16.1867 12.5499C16.1936 12.4888 16.2003 12.427 16.2069 12.3644C16.208 12.3545 16.2095 12.3446 16.2114 12.3348C16.2169 12.3077 16.2201 12.2786 16.2203 12.2478C16.2203 12.238 16.2209 12.2283 16.2218 12.2185C16.3109 11.3209 16.3651 10.2866 16.3651 9.20445C16.3651 8.42637 16.3371 7.67355 16.2883 6.97893L16.2066 6.04127Z" fill="#444444"/>
<path d="M4.64977 1.4376L4.68512 1.73551L4.64977 1.4376ZM13.3502 1.4376L13.3856 1.13969L13.3502 1.4376ZM14.86 1.68437L14.7924 1.97666V1.97666L14.86 1.68437ZM15.404 1.84096L15.5081 1.55958L15.5081 1.55958L15.404 1.84096ZM15.8989 2.1217L15.697 2.34361L15.6971 2.34362L15.8989 2.1217ZM16.1898 2.53952L16.3155 2.81195L16.5879 2.68633L16.4623 2.4139L16.1898 2.53952ZM16.1898 2.53952L16.4623 2.4139L16.3367 2.14147L16.0642 2.26708L16.1898 2.53952ZM16.3262 2.908L16.0392 2.99517L16.0392 2.99517L16.3262 2.908ZM16.5218 3.7413L16.2271 3.79734V3.79734L16.5218 3.7413ZM16.8175 5.78756L16.5195 5.82129V5.8213L16.8175 5.78756ZM16.8369 5.96393L16.5385 5.99549L16.5398 6.00726L16.5419 6.01889L16.8369 5.96393ZM16.855 6.14111L16.555 6.14731L16.5553 6.15897L16.5564 6.17058L16.855 6.14111ZM16.9215 6.93173L16.6222 6.95274L16.6222 6.95278L16.9215 6.93173ZM16.855 12.2679L16.5564 12.2384L16.5553 12.25L16.555 12.2616L16.855 12.2679ZM16.8369 12.4445L16.542 12.3896L16.5398 12.4012L16.5386 12.413L16.8369 12.4445ZM16.8175 12.6213L16.5194 12.5876L16.5194 12.5876L16.8175 12.6213ZM16.5218 14.6675L16.8166 14.7235L16.8166 14.7235L16.5218 14.6675ZM16.3262 15.5007L16.0392 15.4136V15.4136L16.3262 15.5007ZM16.1898 15.8692L15.9174 15.7436L15.9174 15.7436L16.1898 15.8692ZM15.6914 16.0588L15.9133 15.8569L15.4694 16.2607L15.6914 16.0588ZM15.899 16.287L16.1111 16.4991L16.3134 16.2968L16.1209 16.0851L15.899 16.287ZM15.404 16.5678L15.3 16.2864L15.3 16.2864L15.404 16.5678ZM14.86 16.7243L14.7924 16.432L14.86 16.7243ZM13.3502 16.9711L13.3149 16.6732H13.3149L13.3502 16.9711ZM4.64977 16.9711L4.68512 16.6732H4.68512L4.64977 16.9711ZM3.13997 16.7243L3.20757 16.432H3.20757L3.13997 16.7243ZM2.59595 16.5678L2.70001 16.2864L2.7 16.2864L2.59595 16.5678ZM2.101 16.287L2.30289 16.0651L2.30289 16.0651L2.101 16.287ZM1.72802 15.6999L2.00684 15.5892H2.00684L1.72802 15.6999ZM1.53993 15.0874L1.24855 15.1587H1.24855L1.53993 15.0874ZM1.26022 13.485L1.5578 13.4469V13.4469L1.26022 13.485ZM1.0785 6.9317L1.37776 6.95273L1.37776 6.95273L1.0785 6.9317ZM1.39445 4.125L1.09855 4.07557L1.39445 4.125ZM1.62489 3.0425L1.33626 2.96071L1.62489 3.0425ZM1.7811 2.59459L1.50654 2.47368L1.50654 2.47368L1.7811 2.59459ZM2.59595 1.84096L2.49189 1.55958V1.55958L2.59595 1.84096ZM3.13996 1.68437L3.20757 1.97666L3.13996 1.68437ZM16.1867 5.85896L16.1529 5.56086L15.8548 5.5946L15.8886 5.8927L16.1867 5.85896ZM16.2066 6.04127L16.5055 6.01521L16.5049 6.00984L16.2066 6.04127ZM16.5021 5.82326L16.5358 6.12136L16.4684 5.52516L16.5021 5.82326ZM16.1867 5.85896L15.8886 5.89269L15.9223 6.19079L16.2204 6.15705L16.1867 5.85896ZM15.8981 3.85991L15.6034 3.91596V3.91596L15.8981 3.85991ZM15.7187 3.09249L15.6315 2.80543L15.3445 2.89261L15.4316 3.17966L15.7187 3.09249ZM15.7187 3.09249L15.4316 3.17966L15.5188 3.46672L15.8059 3.37954L15.7187 3.09249ZM15.6133 2.80537L15.8857 2.67976L15.8857 2.67976L15.6133 2.80537ZM15.4717 2.59136L15.6736 2.36941L15.6692 2.36559L15.4717 2.59136ZM15.4717 2.59135L15.2697 2.8133L15.2741 2.81712L15.4717 2.59135ZM15.1838 2.43646L15.2879 2.15509V2.15509L15.1838 2.43646ZM14.7169 2.30296L14.7846 2.01068V2.01068L14.7169 2.30296ZM13.2754 2.0681L13.2401 2.36601L13.2754 2.0681ZM4.72459 2.0681L4.75995 2.36601L4.72459 2.0681ZM3.28305 2.30296L3.35066 2.59524L3.28305 2.30296ZM2.81617 2.43646L2.71211 2.15509V2.15509L2.81617 2.43646ZM2.52828 2.59137L2.32639 2.36947L2.32115 2.37424L2.31615 2.37924L2.52828 2.59137ZM2.52828 2.59137L2.73017 2.81327L2.73541 2.80851L2.74041 2.80351L2.52828 2.59137ZM2.36217 2.85048L2.63673 2.97139L2.63673 2.97139L2.36217 2.85048ZM2.23576 3.2156L2.5244 3.29739L2.23576 3.2156ZM2.02069 4.22962L2.31659 4.27905L2.02069 4.22962ZM1.71186 6.9762L1.69083 7.27546L1.99009 7.29649L2.01112 6.99723L1.71186 6.9762ZM1.71186 6.9762L2.01112 6.99723L2.03215 6.69797L1.73288 6.67694L1.71186 6.9762ZM1.89001 13.4044L1.59243 13.4425L1.89001 13.4044ZM2.15662 14.9363L1.86524 15.0077L2.15662 14.9363ZM2.31812 15.4656L2.59694 15.3549L2.31812 15.4656ZM2.52828 15.8173L2.75018 16.0192L2.95207 15.7973L2.73017 15.5954L2.52828 15.8173ZM2.31464 16.0522L2.09274 15.8503L2.53654 16.2541L2.31464 16.0522ZM2.52828 15.8173L2.73017 15.5954L2.50827 15.3936L2.30638 15.6155L2.52828 15.8173ZM2.81617 15.9722L3.09755 16.0763L3.2016 15.7949L2.92022 15.6909L2.81617 15.9722ZM2.81617 15.9722L2.92022 15.6909L2.63885 15.5868L2.53479 15.8682L2.81617 15.9722ZM3.28305 16.1057L3.35066 15.8135L3.28305 16.1057ZM4.72459 16.3406L4.68924 16.6385L4.72459 16.3406ZM13.2754 16.3406L13.3108 16.6385L13.2754 16.3406ZM14.7169 16.1057L14.7846 16.398L14.7169 16.1057ZM15.1838 15.9722L15.0798 15.6909L15.1838 15.9722ZM15.4717 15.8174L15.6736 16.0393L15.6788 16.0345L15.6838 16.0295L15.4717 15.8174ZM15.4717 15.8173L15.2698 15.5954L15.2646 15.6002L15.2596 15.6052L15.4717 15.8173ZM15.6133 15.6033L15.3408 15.4777L15.3408 15.4777L15.6133 15.6033ZM15.7187 15.3162L15.8059 15.0292L15.5188 14.942L15.4316 15.2291L15.7187 15.3162ZM15.9683 15.392L15.8811 15.6791L16.0554 15.105L15.9683 15.392ZM15.7187 15.3162L15.4316 15.2291L15.3445 15.5161L15.6315 15.6033L15.7187 15.3162ZM15.8981 14.5488L16.1928 14.6049L16.1928 14.6049L15.8981 14.5488ZM16.1867 12.5499L15.8886 12.5162L15.8886 12.5162L16.1867 12.5499ZM16.2069 12.3644L16.5053 12.3958L16.5053 12.3958L16.2069 12.3644ZM16.2114 12.3348L15.9174 12.2754L15.9174 12.2754L16.2114 12.3348ZM16.2203 12.2478L15.9203 12.2457V12.2457L16.2203 12.2478ZM16.2218 12.2185L16.5204 12.2482V12.2482L16.2218 12.2185ZM16.2883 6.97893L16.5876 6.95791L16.5872 6.95288L16.2883 6.97893ZM9 0.904346C7.35865 0.904346 5.8126 0.9975 4.61441 1.13969L4.68512 1.73551C5.85697 1.59645 7.37919 1.50435 9 1.50435V0.904346ZM13.3856 1.13969C12.1874 0.9975 10.6413 0.904346 9 0.904346V1.50435C10.6208 1.50435 12.143 1.59645 13.3149 1.73551L13.3856 1.13969ZM14.9276 1.39209C14.5103 1.29555 13.9827 1.21055 13.3856 1.13969L13.3149 1.73551C13.9 1.80495 14.4042 1.88685 14.7924 1.97666L14.9276 1.39209ZM15.5081 1.55958C15.3338 1.49511 15.1352 1.44011 14.9276 1.39209L14.7924 1.97666C14.9861 2.02145 15.158 2.06982 15.3 2.12233L15.5081 1.55958ZM16.1008 1.89979C15.895 1.71257 15.6533 1.61326 15.5081 1.55958L15.3 2.12233C15.4276 2.16954 15.5795 2.23671 15.697 2.34361L16.1008 1.89979ZM16.4623 2.4139C16.4095 2.29936 16.2988 2.07992 16.1008 1.89978L15.6971 2.34362C15.8044 2.44126 15.8744 2.57176 15.9174 2.66513L16.4623 2.4139ZM16.0272 2.94488L16.3155 2.81195L16.0642 2.26708L15.7759 2.40001L16.0272 2.94488ZM16.0642 2.26708L15.7759 2.40001L16.0272 2.94488L16.3155 2.81195L16.0642 2.26708ZM16.6133 2.82083C16.5744 2.693 16.5252 2.55045 16.4623 2.4139L15.9174 2.66513C15.9646 2.76756 16.0047 2.88172 16.0392 2.99517L16.6133 2.82083ZM16.8166 3.68525C16.7585 3.37978 16.6913 3.07767 16.6133 2.82083L16.0392 2.99517C16.1082 3.22249 16.1707 3.50088 16.2271 3.79734L16.8166 3.68525ZM17.1156 5.75383C17.0364 5.0538 16.9339 4.30242 16.8166 3.68525L16.2271 3.79734C16.3405 4.39358 16.441 5.12836 16.5195 5.82129L17.1156 5.75383ZM17.1352 5.93237C17.1288 5.87226 17.1223 5.81274 17.1156 5.75382L16.5195 5.8213C16.526 5.87874 16.5323 5.93681 16.5385 5.99549L17.1352 5.93237ZM17.1549 6.1349C17.1533 6.0582 17.1455 5.98262 17.1318 5.90897L16.5419 6.01889C16.5496 6.06022 16.5541 6.10319 16.555 6.14731L17.1549 6.1349ZM17.2207 6.91072C17.2014 6.63571 17.1789 6.36865 17.1535 6.11163L16.5564 6.17058C16.5812 6.42176 16.6033 6.68318 16.6222 6.95274L17.2207 6.91072ZM17.3 9.20445C17.3 8.40338 17.2712 7.62775 17.2207 6.91068L16.6222 6.95278C16.6717 7.65591 16.7 8.4175 16.7 9.20445H17.3ZM17.1535 12.2973C17.2449 11.3713 17.3 10.3111 17.3 9.20445H16.7C16.7 10.292 16.6459 11.3325 16.5564 12.2384L17.1535 12.2973ZM17.1318 12.4994C17.1455 12.426 17.1533 12.3506 17.1549 12.2741L16.555 12.2616C16.5541 12.3056 16.5496 12.3484 16.542 12.3896L17.1318 12.4994ZM17.1156 12.6551C17.1223 12.596 17.1289 12.5364 17.1352 12.4761L16.5386 12.413C16.5323 12.4718 16.526 12.53 16.5194 12.5876L17.1156 12.6551ZM16.8166 14.7235C16.9339 14.1064 17.0364 13.355 17.1156 12.6551L16.5194 12.5876C16.441 13.2805 16.3405 14.0152 16.2271 14.6114L16.8166 14.7235ZM16.6133 15.5879C16.6913 15.3311 16.7585 15.029 16.8166 14.7235L16.2271 14.6114C16.1707 14.9079 16.1082 15.1862 16.0392 15.4136L16.6133 15.5879ZM16.4623 15.9948C16.5252 15.8583 16.5744 15.7157 16.6133 15.5879L16.0392 15.4136C16.0047 15.527 15.9646 15.6412 15.9174 15.7436L16.4623 15.9948ZM16.1008 16.5089C16.2988 16.3288 16.4095 16.1094 16.4623 15.9948L15.9174 15.7436C15.8744 15.837 15.8044 15.9675 15.6971 16.0651L16.1008 16.5089ZM15.4694 16.2607L15.677 16.4889L16.1209 16.0851L15.9133 15.8569L15.4694 16.2607ZM16.1209 16.0851L15.9133 15.8569L15.4694 16.2607L15.677 16.4889L16.1209 16.0851ZM16.1111 16.4991C16.1179 16.4923 16.1231 16.4864 16.1264 16.4826C16.128 16.4807 16.1294 16.4791 16.1302 16.4782C16.1306 16.4777 16.1309 16.4773 16.1311 16.477C16.1312 16.4769 16.1313 16.4768 16.1313 16.4767C16.1314 16.4767 16.1314 16.4767 16.1314 16.4767C16.1314 16.4767 16.1314 16.4766 16.1314 16.4766C16.1314 16.4766 16.1314 16.4766 16.1314 16.4766C16.1314 16.4766 16.1314 16.4766 16.1314 16.4766L16.1314 16.4766C16.1318 16.4761 16.1294 16.4792 16.1264 16.4826C16.1231 16.4864 16.1179 16.4923 16.1111 16.4991L15.6868 16.0749C15.68 16.0817 15.6748 16.0876 15.6715 16.0914C15.6698 16.0933 15.6685 16.0949 15.6677 16.0958C15.6673 16.0963 15.667 16.0967 15.6668 16.097C15.6667 16.0971 15.6666 16.0972 15.6666 16.0973C15.6665 16.0973 15.6665 16.0973 15.6665 16.0973C15.6665 16.0973 15.6665 16.0973 15.6665 16.0974C15.6665 16.0974 15.6665 16.0974 15.6665 16.0974C15.6665 16.0974 15.6665 16.0974 15.6665 16.0974C15.6665 16.0974 15.6665 16.0974 15.6665 16.0974C15.6661 16.0978 15.6685 16.0948 15.6715 16.0914C15.6748 16.0876 15.68 16.0817 15.6868 16.0749L16.1111 16.4991ZM15.5081 16.8491C15.6533 16.7954 15.895 16.6961 16.1008 16.5089L15.6971 16.0651C15.5796 16.172 15.4276 16.2392 15.3 16.2864L15.5081 16.8491ZM14.9276 17.0166C15.1352 16.9686 15.3338 16.9136 15.5081 16.8491L15.3 16.2864C15.158 16.3389 14.9861 16.3873 14.7924 16.432L14.9276 17.0166ZM13.3856 17.269C13.9827 17.1981 14.5103 17.1131 14.9276 17.0166L14.7924 16.432C14.4042 16.5219 13.9 16.6037 13.3149 16.6732L13.3856 17.269ZM9 17.5043C10.6413 17.5043 12.1874 17.4112 13.3856 17.269L13.3149 16.6732C12.143 16.8122 10.6208 16.9043 9 16.9043V17.5043ZM4.61442 17.269C5.8126 17.4112 7.35865 17.5043 9 17.5043V16.9043C7.37919 16.9043 5.85697 16.8122 4.68512 16.6732L4.61442 17.269ZM3.07236 17.0166C3.48969 17.1131 4.01735 17.1981 4.61442 17.269L4.68512 16.6732C4.09999 16.6037 3.59582 16.5219 3.20757 16.432L3.07236 17.0166ZM2.4919 16.8491C2.66624 16.9136 2.86479 16.9686 3.07236 17.0166L3.20757 16.432C3.01394 16.3873 2.84201 16.3389 2.70001 16.2864L2.4919 16.8491ZM1.89911 16.5089C2.10492 16.6961 2.34672 16.7954 2.4919 16.8491L2.7 16.2864C2.57233 16.2392 2.42039 16.172 2.30289 16.0651L1.89911 16.5089ZM1.44919 15.8107C1.51417 15.9743 1.64766 16.2801 1.89911 16.5089L2.30289 16.0651C2.1589 15.9341 2.0663 15.739 2.00684 15.5892L1.44919 15.8107ZM1.24855 15.1587C1.30367 15.3838 1.36926 15.6093 1.44919 15.8107L2.00684 15.5892C1.94093 15.4232 1.88295 15.2268 1.83132 15.016L1.24855 15.1587ZM0.962648 13.523C1.0416 14.1401 1.13748 14.7053 1.24855 15.1587L1.83132 15.016C1.72767 14.5928 1.63523 14.0521 1.5578 13.4469L0.962648 13.523ZM0.7 9.20445C0.7 10.7252 0.804036 12.2834 0.962648 13.523L1.5578 13.4469C1.40255 12.2336 1.3 10.7008 1.3 9.20445H0.7ZM0.779235 6.91067C0.728852 7.62768 0.7 8.4033 0.7 9.20445H1.3C1.3 8.41744 1.32835 7.65583 1.37776 6.95273L0.779235 6.91067ZM1.09855 4.07557C0.961358 4.8968 0.849097 5.91641 0.779235 6.91067L1.37776 6.95273C1.44666 5.97209 1.55708 4.97217 1.69035 4.17444L1.09855 4.07557ZM1.33626 2.96071C1.24542 3.2813 1.1666 3.6682 1.09855 4.07557L1.69035 4.17444C1.75669 3.7773 1.83124 3.41468 1.91353 3.12429L1.33626 2.96071ZM1.50654 2.47368C1.43694 2.63172 1.38141 2.80136 1.33626 2.96071L1.91353 3.12429C1.95456 2.97948 2.00138 2.83874 2.05565 2.7155L1.50654 2.47368ZM1.8991 1.89985C1.68389 2.09566 1.56472 2.34157 1.50654 2.47368L2.05565 2.7155C2.10518 2.60304 2.18339 2.45236 2.30288 2.34365L1.8991 1.89985ZM2.53653 2.15467L2.32289 1.91985L1.87909 2.32364L2.09274 2.55845L2.53653 2.15467ZM1.87909 2.32364L2.09274 2.55845L2.53653 2.15467L2.32289 1.91985L1.87909 2.32364ZM2.49189 1.55958C2.34671 1.61327 2.10491 1.71259 1.8991 1.89985L2.30288 2.34365C2.42039 2.23673 2.57233 2.16955 2.7 2.12233L2.49189 1.55958ZM3.07235 1.39209C2.86478 1.44011 2.66623 1.49511 2.49189 1.55958L2.7 2.12233C2.84201 2.06982 3.01394 2.02145 3.20757 1.97666L3.07235 1.39209ZM4.61441 1.13969C4.01734 1.21055 3.48969 1.29555 3.07235 1.39209L3.20757 1.97666C3.59582 1.88685 4.09999 1.80495 4.68512 1.73551L4.61441 1.13969ZM15.8886 5.8927C15.8953 5.95198 15.9018 6.01199 15.9082 6.07269L16.5049 6.00984C16.4984 5.94762 16.4916 5.88607 16.4848 5.82522L15.8886 5.8927ZM16.4684 5.52516L16.1529 5.56086L16.2204 6.15706L16.5358 6.12136L16.4684 5.52516ZM16.2204 6.15705L16.5358 6.12136L16.4684 5.52516L16.1529 5.56086L16.2204 6.15705ZM15.6034 3.91596C15.7126 4.49005 15.811 5.20725 15.8886 5.89269L16.4848 5.82522C16.4064 5.1327 16.306 4.39889 16.1928 3.80387L15.6034 3.91596ZM15.4316 3.17966C15.4912 3.37572 15.5488 3.629 15.6034 3.91596L16.1928 3.80387C16.1365 3.50793 16.0743 3.23092 16.0057 3.00532L15.4316 3.17966ZM15.9353 2.71319L15.6315 2.80543L15.8059 3.37954L16.1096 3.2873L15.9353 2.71319ZM15.8059 3.37954L16.1096 3.2873L15.9353 2.71319L15.6315 2.80543L15.8059 3.37954ZM15.3408 2.93099C15.3714 2.99726 15.4018 3.08136 15.4316 3.17966L16.0057 3.00532C15.9715 2.89271 15.932 2.7802 15.8857 2.67976L15.3408 2.93099ZM15.2698 2.81328C15.2807 2.82315 15.3076 2.85882 15.3408 2.93099L15.8857 2.67976C15.8433 2.58783 15.7757 2.46237 15.6736 2.36945L15.2698 2.81328ZM15.2741 2.81712L15.2741 2.81714L15.6692 2.36559L15.6692 2.36558L15.2741 2.81712ZM15.0798 2.71784C15.1902 2.75866 15.2462 2.79184 15.2698 2.81326L15.6736 2.36945C15.5611 2.26716 15.4143 2.20185 15.2879 2.15509L15.0798 2.71784ZM14.6493 2.59524C14.8282 2.63663 14.972 2.67798 15.0798 2.71784L15.2879 2.15509C15.1478 2.10327 14.9774 2.05528 14.7846 2.01068L14.6493 2.59524ZM13.2401 2.36601C13.8126 2.43395 14.2919 2.51256 14.6493 2.59524L14.7846 2.01068C14.398 1.92126 13.8952 1.83955 13.3108 1.77019L13.2401 2.36601ZM9 2.13927C10.5991 2.13927 12.0961 2.23025 13.2401 2.36601L13.3108 1.77019C12.1405 1.6313 10.6196 1.53927 9 1.53927V2.13927ZM4.75995 2.36601C5.90391 2.23025 7.40093 2.13927 9 2.13927V1.53927C7.38039 1.53927 5.85955 1.6313 4.68924 1.77019L4.75995 2.36601ZM3.35066 2.59524C3.70812 2.51256 4.18743 2.43395 4.75995 2.36601L4.68924 1.77019C4.1048 1.83955 3.602 1.92126 3.21544 2.01068L3.35066 2.59524ZM2.92022 2.71784C3.028 2.67798 3.17175 2.63663 3.35066 2.59524L3.21544 2.01068C3.02262 2.05528 2.85224 2.10327 2.71211 2.15509L2.92022 2.71784ZM2.73017 2.81327C2.75372 2.79185 2.80981 2.75867 2.92022 2.71784L2.71211 2.15509C2.58564 2.20186 2.43882 2.26718 2.32639 2.36947L2.73017 2.81327ZM2.74041 2.80351L2.74041 2.8035L2.31615 2.37924L2.31615 2.37924L2.74041 2.80351ZM2.63673 2.97139C2.67766 2.87843 2.71252 2.82933 2.73017 2.81327L2.32639 2.36947C2.21238 2.4732 2.13654 2.61846 2.08761 2.72957L2.63673 2.97139ZM2.5244 3.29739C2.56109 3.16792 2.59869 3.05776 2.63673 2.97139L2.08761 2.72957C2.03423 2.85078 1.98792 2.98985 1.94713 3.13381L2.5244 3.29739ZM2.31659 4.27905C2.38113 3.89273 2.45117 3.55581 2.5244 3.29739L1.94713 3.13381C1.86534 3.42244 1.79103 3.78365 1.72479 4.18019L2.31659 4.27905ZM2.01112 6.99723C2.07901 6.03101 2.18748 5.05192 2.31659 4.27905L1.72479 4.18019C1.59175 4.97655 1.48144 5.97533 1.41259 6.95517L2.01112 6.99723ZM1.37415 7.25321L1.69083 7.27546L1.73288 6.67694L1.4162 6.65469L1.37415 7.25321ZM1.73288 6.67694L1.41621 6.65469L1.37415 7.25321L1.69083 7.27546L1.73288 6.67694ZM1.93492 9.20445C1.93492 8.43239 1.96275 7.68563 2.01112 6.99723L1.41259 6.95517C1.36324 7.65747 1.33492 8.41826 1.33492 9.20445H1.93492ZM2.18758 13.3663C2.03589 12.1808 1.93492 10.675 1.93492 9.20445H1.33492C1.33492 10.6994 1.43738 12.2307 1.59243 13.4425L2.18758 13.3663ZM2.44801 14.8649C2.35221 14.4738 2.26341 13.9589 2.18758 13.3663L1.59243 13.4425C1.66978 14.0469 1.76202 14.5863 1.86524 15.0077L2.44801 14.8649ZM2.59694 15.3549C2.54588 15.2263 2.49596 15.0607 2.44801 14.8649L1.86524 15.0077C1.91667 15.2176 1.9742 15.4124 2.0393 15.5763L2.59694 15.3549ZM2.73017 15.5954C2.70058 15.5685 2.65126 15.4917 2.59694 15.3549L2.0393 15.5763C2.09834 15.725 2.18857 15.9139 2.32639 16.0392L2.73017 15.5954ZM2.53654 16.2541L2.75018 16.0192L2.30638 15.6155L2.09274 15.8503L2.53654 16.2541ZM2.30638 15.6155L2.09274 15.8503L2.53654 16.2541L2.75018 16.0192L2.30638 15.6155ZM2.92022 15.6909C2.80981 15.65 2.75371 15.6169 2.73017 15.5954L2.32639 16.0392C2.43883 16.1415 2.58564 16.2069 2.71212 16.2536L2.92022 15.6909ZM2.98744 16.3741L3.09755 16.0763L2.53479 15.8682L2.42468 16.1659L2.98744 16.3741ZM2.53479 15.8682L2.42468 16.1659L2.98744 16.3741L3.09755 16.0763L2.53479 15.8682ZM3.35066 15.8135C3.17174 15.7721 3.02799 15.7307 2.92022 15.6909L2.71212 16.2536C2.85224 16.3054 3.02262 16.3534 3.21544 16.398L3.35066 15.8135ZM4.75995 16.0427C4.18743 15.9747 3.70812 15.8961 3.35066 15.8135L3.21544 16.398C3.602 16.4874 4.1048 16.5691 4.68924 16.6385L4.75995 16.0427ZM9 16.2694C7.40093 16.2694 5.90391 16.1784 4.75995 16.0427L4.68924 16.6385C5.85955 16.7774 7.38039 16.8694 9 16.8694V16.2694ZM13.2401 16.0427C12.0961 16.1784 10.5991 16.2694 9 16.2694V16.8694C10.6196 16.8694 12.1405 16.7774 13.3108 16.6385L13.2401 16.0427ZM14.6493 15.8135C14.2919 15.8961 13.8126 15.9747 13.2401 16.0427L13.3108 16.6385C13.8952 16.5691 14.398 16.4874 14.7846 16.398L14.6493 15.8135ZM15.0798 15.6909C14.972 15.7307 14.8283 15.7721 14.6493 15.8135L14.7846 16.398C14.9774 16.3534 15.1478 16.3054 15.2879 16.2536L15.0798 15.6909ZM15.2698 15.5955C15.2462 15.6169 15.1902 15.65 15.0798 15.6909L15.2879 16.2536C15.4143 16.2069 15.5611 16.1416 15.6736 16.0393L15.2698 15.5955ZM15.2596 15.6052L15.2595 15.6052L15.6838 16.0295L15.6838 16.0295L15.2596 15.6052ZM15.3408 15.4777C15.3076 15.5499 15.2807 15.5856 15.2698 15.5954L15.6736 16.0393C15.7757 15.9463 15.8433 15.8209 15.8857 15.729L15.3408 15.4777ZM15.4316 15.2291C15.4018 15.3274 15.3714 15.4115 15.3408 15.4777L15.8857 15.729C15.932 15.6285 15.9715 15.516 16.0057 15.4034L15.4316 15.2291ZM16.0554 15.105L15.8059 15.0292L15.6315 15.6033L15.8811 15.6791L16.0554 15.105ZM15.6315 15.6033L15.8811 15.6791L16.0554 15.105L15.8059 15.0292L15.6315 15.6033ZM15.6034 14.4928C15.5488 14.7797 15.4912 15.033 15.4316 15.2291L16.0057 15.4034C16.0742 15.1778 16.1365 14.9008 16.1928 14.6049L15.6034 14.4928ZM15.8886 12.5162C15.811 13.2016 15.7126 13.9187 15.6034 14.4928L16.1928 14.6049C16.306 14.0099 16.4064 13.2761 16.4848 12.5836L15.8886 12.5162ZM15.9086 12.333C15.9021 12.3948 15.8954 12.4559 15.8886 12.5162L16.4847 12.5836C16.4918 12.5218 16.4986 12.4592 16.5053 12.3958L15.9086 12.333ZM15.9174 12.2754C15.9135 12.2945 15.9106 12.3137 15.9086 12.333L16.5053 12.3958C16.5053 12.3953 16.5054 12.3947 16.5055 12.3942L15.9174 12.2754ZM15.9203 12.2457C15.9202 12.2574 15.919 12.2673 15.9174 12.2754L16.5055 12.3942C16.5148 12.3481 16.5199 12.2997 16.5203 12.2498L15.9203 12.2457ZM15.9233 12.1889C15.9214 12.2078 15.9204 12.2268 15.9203 12.2457L16.5203 12.2498C16.5203 12.2492 16.5203 12.2487 16.5204 12.2482L15.9233 12.1889ZM16.0651 9.20445C16.0651 10.277 16.0114 11.3014 15.9233 12.1889L16.5204 12.2482C16.6105 11.3404 16.6651 10.2962 16.6651 9.20445H16.0651ZM15.989 6.99996C16.0374 7.68761 16.0651 8.43342 16.0651 9.20445H16.6651C16.6651 8.41932 16.6369 7.65949 16.5876 6.95791L15.989 6.99996ZM15.9077 6.06732L15.9894 7.00499L16.5872 6.95288L16.5054 6.01521L15.9077 6.06732Z" fill="#444444" mask="url(#path-1-outside-1_105_100)"/>
<path d="M13.3514 7.91891L14.1014 7.91891L14.1014 7.16931L13.3518 7.16891L13.3514 7.91891ZM14.1015 11.5811L14.1014 7.91891L12.6014 7.91892L12.6015 11.5811L14.1015 11.5811ZM13.3518 7.16891L9.68771 7.16699L9.68692 8.66699L13.351 8.66891L13.3518 7.16891ZM12.8211 7.38858L6.71418 13.4954L7.77483 14.5561L13.8818 8.44925L12.8211 7.38858Z" fill="#444444"/>
<path d="M4.80033 10.9691L4.05033 10.9691L4.05034 11.7187L4.79994 11.7191L4.80033 10.9691ZM4.05029 7.30695L4.05033 10.9691L5.55033 10.9691L5.55029 7.30693L4.05029 7.30695ZM4.79994 11.7191L8.46406 11.7211L8.46485 10.2211L4.80072 10.2191L4.79994 11.7191ZM5.33065 11.4995L11.4376 5.39264L10.3769 4.33197L4.27 10.4388L5.33065 11.4995Z" fill="#444444"/>
</svg>
