<svg width="17" height="18" viewBox="0 0 17 18" fill="none" xmlns="http://www.w3.org/2000/svg">
<path fill-rule="evenodd" clip-rule="evenodd" d="M9.72766 0.369871L9.72763 0.369847C9.38719 0.229703 8.95818 0.204346 8.09524 0.204346C7.2323 0.204346 6.80329 0.229703 6.4629 0.369847H6.46287C5.92694 0.590547 5.50115 1.01385 5.27915 1.54664C5.18316 1.77707 5.13504 2.04322 5.12034 2.43409C5.11144 2.67087 4.99614 2.89395 4.78973 3.01243C4.58331 3.13089 4.33132 3.11863 4.12061 3.0079C3.77277 2.82513 3.51684 2.73347 3.26812 2.70093C2.69301 2.62564 2.11136 2.78058 1.65114 3.13165C1.35888 3.35461 1.12225 3.71132 0.690782 4.45429C0.259312 5.19725 0.0668776 5.57932 0.0187987 5.94244C-0.0569106 6.51419 0.0989222 7.09244 0.452034 7.54997C0.604741 7.74782 0.812518 7.92227 1.14561 8.13035C1.34745 8.25642 1.48419 8.46733 1.48419 8.70432C1.48417 8.94129 1.34747 9.15213 1.14563 9.27818L1.14556 9.27823C0.812446 9.48638 0.604669 9.66087 0.451986 9.8587C0.0988506 10.3162 -0.057006 10.8944 0.0187272 11.4662C0.066806 11.8292 0.259241 12.2114 0.69071 12.9544C1.1222 13.6973 1.35885 14.0541 1.65112 14.277C2.11132 14.628 2.69292 14.7829 3.268 14.7077H3.26802C3.51672 14.6752 3.77263 14.5835 4.12044 14.4008L4.12046 14.4008C4.33122 14.29 4.58326 14.2777 4.7897 14.3962C4.99612 14.5147 5.11144 14.7378 5.12034 14.9747V14.9747C5.13506 15.3655 5.18316 15.6317 5.27915 15.8621L5.27918 15.8621C5.50115 16.3948 5.92694 16.8182 6.46282 17.0389L6.4629 17.0389C6.80331 17.179 7.23233 17.2043 8.09524 17.2043C8.95815 17.2043 9.38717 17.179 9.72754 17.0389L9.72761 17.0389C10.2635 16.8181 10.6894 16.3948 10.9113 15.8621C11.0073 15.6317 11.0554 15.3655 11.0701 14.9746V14.9746C11.079 14.7377 11.1944 14.5147 11.4008 14.3962C11.6072 14.2777 11.8592 14.29 12.07 14.4008H12.07C12.4178 14.5835 12.6736 14.6751 12.9223 14.7076C13.4974 14.783 14.0791 14.628 14.5393 14.277V14.2769C14.8316 14.054 15.0682 13.6973 15.4997 12.9543C15.9312 12.2113 16.1236 11.8292 16.1717 11.4661C16.2474 10.8944 16.0915 10.3161 15.7384 9.85863C15.5857 9.66078 15.3779 9.48626 15.0448 9.2782C14.843 9.15213 14.7063 8.94125 14.7063 8.70428C14.7063 8.4673 14.843 8.25654 15.0448 8.13049C15.378 7.92231 15.5858 7.74787 15.7385 7.54992C16.0916 7.09248 16.2474 6.51426 16.1718 5.94254C16.1237 5.57942 15.9312 5.1973 15.4997 4.45433C15.0683 3.71139 14.8316 3.35465 14.5394 3.13172C14.0792 2.78063 13.4975 2.62569 12.9224 2.70098C12.6737 2.73352 12.4179 2.82516 12.07 3.0079L12.07 3.00792C11.8592 3.11865 11.6072 3.13094 11.4008 3.01248L11.4008 3.01246C11.1943 2.89397 11.079 2.67087 11.0701 2.43409V2.43407C11.0554 2.04319 11.0073 1.77704 10.9113 1.54664C10.6894 1.01387 10.2635 0.590547 9.72766 0.369871ZM9.27108 1.46561C9.51463 1.56593 9.70816 1.75831 9.80902 2.00045L9.80904 2.00052C9.86051 2.12399 9.87008 2.26909 9.87795 2.47838C9.90215 3.12352 10.2418 3.71678 10.8043 4.0396C11.3667 4.36242 12.0533 4.35822 12.6274 4.05653C12.8137 3.95866 12.9449 3.89431 13.0781 3.87687C13.3395 3.84266 13.6039 3.91307 13.8131 4.07264C14.0229 4.23276 14.1567 4.51385 14.4665 5.04736L14.4665 5.04738C14.7764 5.58087 14.9544 5.83655 14.9889 6.09727C15.0233 6.35716 14.9525 6.62001 14.792 6.82795L14.7919 6.82802C14.7101 6.9341 14.5884 7.0148 14.41 7.12626C13.8602 7.46972 13.5132 8.05861 13.5132 8.70428C13.5132 9.34989 13.8602 9.939 14.4101 10.2825C14.5885 10.3939 14.7101 10.4747 14.7919 10.5806C14.9524 10.7886 15.0233 11.0515 14.9889 11.3114C14.9543 11.5721 14.7763 11.8278 14.4665 12.3612L14.4664 12.3612C14.1566 12.8948 14.0229 13.1759 13.813 13.336C13.6039 13.4956 13.3395 13.566 13.0781 13.5317L13.078 13.5317C12.9449 13.5143 12.8137 13.45 12.6274 13.3521C12.0531 13.0505 11.3665 13.0462 10.8041 13.3691C10.2418 13.692 9.90215 14.2852 9.87795 14.9303C9.87008 15.1396 9.86051 15.2847 9.80909 15.4081L9.80907 15.4082C9.70819 15.6504 9.51463 15.8428 9.27111 15.9431C9.02666 16.0437 8.71492 16.0183 8.09524 16.0183C7.47556 16.0183 7.16382 16.0437 6.91937 15.9431C6.6758 15.8428 6.48227 15.6503 6.38136 15.4082C6.32995 15.2848 6.3204 15.1396 6.31253 14.9303C6.28826 14.2851 5.94866 13.6919 5.38624 13.3691L5.38619 13.369C4.82373 13.0463 4.13717 13.0505 3.56299 13.3522C3.37676 13.45 3.24555 13.5144 3.11236 13.5318C2.85092 13.566 2.58652 13.4956 2.37734 13.336L2.37729 13.336C2.16741 13.1759 2.0337 12.8947 1.72389 12.3613C1.41406 11.8278 1.23607 11.5721 1.20154 11.3114C1.16711 11.0515 1.23795 10.7887 1.39846 10.5807C1.48028 10.4747 1.60197 10.3939 1.78039 10.2824C2.33019 9.939 2.67717 9.35001 2.67721 8.70437C2.67724 8.05878 2.33028 7.46967 1.78037 7.1261C1.60199 7.01466 1.48035 6.93396 1.39858 6.82799C1.23805 6.61999 1.1672 6.35716 1.20161 6.09725C1.23614 5.83651 1.41414 5.58082 1.72396 5.04731C2.03379 4.5138 2.16753 4.23271 2.37741 4.07262C2.58659 3.91302 2.85099 3.84259 3.11241 3.87682C3.24562 3.89426 3.37683 3.95859 3.56311 4.05649C4.13726 4.35817 4.82382 4.36237 5.38624 4.03957C5.94866 3.71678 6.28826 3.12356 6.31253 2.4784C6.3204 2.26906 6.32997 2.12392 6.38136 2.00052C6.48227 1.75835 6.6758 1.56595 6.91939 1.46564C7.16382 1.36499 7.47556 1.39039 8.09524 1.39039C8.7149 1.39039 9.02663 1.36499 9.27108 1.46561ZM8.09524 5.73923C6.44913 5.73923 5.11268 7.06786 5.11268 8.70435C5.11268 10.3408 6.44913 11.6695 8.09524 11.6695C9.74135 11.6695 11.0778 10.3408 11.0778 8.70435C11.0778 7.06786 9.74135 5.73923 8.09524 5.73923ZM8.09524 6.92527C9.08292 6.92527 9.88478 7.72244 9.88478 8.70435C9.88478 9.68625 9.08292 10.4834 8.09524 10.4834C7.10756 10.4834 6.3057 9.68625 6.3057 8.70435C6.3057 7.72244 7.10756 6.92527 8.09524 6.92527Z" fill="#444444"/>
</svg>
