<svg width="15" height="16" viewBox="0 0 15 16" fill="none" xmlns="http://www.w3.org/2000/svg">
<path fill-rule="evenodd" clip-rule="evenodd" d="M15 3.23291C15 1.57606 13.6569 0.23291 12 0.23291H3C1.34315 0.23291 0 1.57606 0 3.23291V12.2329C0 13.8898 1.34315 15.2329 3 15.2329H12C13.6569 15.2329 15 13.8898 15 12.2329V3.23291ZM7.87183 14.7695C7.87273 14.7696 7.8736 14.7699 7.87441 14.7704C7.87638 14.7715 7.8781 14.7733 7.87933 14.7756C7.8809 14.7785 7.88104 14.782 7.88118 14.7853L7.89152 15.0438C7.89161 15.0462 7.89142 15.0485 7.89095 15.0508C7.89004 15.0554 7.88808 15.0596 7.88523 15.0632L7.88465 15.064C7.88268 15.0665 7.88037 15.0687 7.87778 15.0705L7.81906 15.1125C7.81766 15.1135 7.81612 15.1142 7.81448 15.1148C7.81129 15.1159 7.80786 15.116 7.80461 15.1151L7.80384 15.1149C7.8015 15.1143 7.79929 15.1132 7.79732 15.1118L7.73808 15.0695C7.73641 15.0683 7.73487 15.067 7.73349 15.0654C7.73034 15.0619 7.7281 15.0577 7.72699 15.0531L7.72669 15.0519C7.72628 15.0502 7.726 15.0485 7.72586 15.0468C7.72575 15.0454 7.72572 15.044 7.72577 15.0427L7.73613 14.7839C7.73622 14.7815 7.73669 14.7792 7.73752 14.777C7.73839 14.7747 7.73955 14.7723 7.74166 14.7711C7.74361 14.7699 7.74599 14.7692 7.74861 14.7693C7.75195 14.7693 7.75503 14.7709 7.75802 14.7723L7.79499 14.7908C7.79695 14.7918 7.79903 14.7926 7.80116 14.7931C7.80529 14.7941 7.80958 14.7942 7.81375 14.7934L7.81475 14.7932C7.81777 14.7926 7.82069 14.7916 7.82345 14.7902L7.86053 14.7717C7.86264 14.7706 7.8649 14.7699 7.86723 14.7696C7.86876 14.7694 7.87034 14.7692 7.87183 14.7695ZM8.03207 14.6994C8.035 14.6989 8.0381 14.6988 8.04066 14.7003C8.0431 14.7016 8.04521 14.7038 8.04669 14.7067C8.04844 14.71 8.04865 14.7139 8.04886 14.7176L8.06964 15.0917C8.06981 15.0946 8.06948 15.0976 8.06867 15.1004C8.06783 15.1034 8.06661 15.1064 8.06406 15.1082C8.06034 15.1107 8.05518 15.1116 8.04959 15.1099L7.9261 15.0529C7.9247 15.0523 7.92339 15.0515 7.92221 15.0505C7.91992 15.0486 7.91815 15.0461 7.91709 15.0433L7.91684 15.0426C7.91607 15.0406 7.91564 15.0385 7.91555 15.0363L7.9046 14.7735C7.90456 14.7727 7.90459 14.7719 7.90467 14.7711C7.90474 14.7703 7.90488 14.7695 7.90506 14.7687C7.90579 14.7657 7.90733 14.7629 7.90951 14.7607L7.91003 14.7601C7.9116 14.7585 7.91343 14.7572 7.91545 14.7562L8.02402 14.7019C8.02655 14.7006 8.02927 14.6998 8.03207 14.6994ZM7.57595 14.7003C7.57988 14.6981 7.58485 14.6977 7.5894 14.7L7.70246 14.7565C7.70404 14.7573 7.7055 14.7583 7.7068 14.7595C7.70939 14.7619 7.71124 14.7651 7.7121 14.7685C7.71253 14.7702 7.71271 14.772 7.71264 14.7738L7.70167 15.037C7.70163 15.0379 7.70153 15.0388 7.70136 15.0397C7.70122 15.0405 7.70102 15.0412 7.70077 15.042C7.69972 15.0452 7.69779 15.0481 7.6952 15.0503C7.69391 15.0514 7.69248 15.0523 7.69094 15.053L7.57207 15.1079C7.56915 15.1092 7.56602 15.1101 7.56282 15.1103C7.55957 15.1106 7.55614 15.1105 7.55346 15.1087C7.54962 15.106 7.54706 15.1015 7.54736 15.0961L7.56844 14.7167C7.56861 14.7136 7.5693 14.7105 7.57047 14.7077C7.57166 14.7048 7.57322 14.7019 7.57595 14.7003ZM9.38768 10.3315C9.77863 10.3315 10.0956 10.0146 10.0956 9.62367C10.0956 9.23274 9.77863 8.9158 9.38768 8.9158L5.41689 8.91579L5.87696 8.45572C6.15341 8.17927 6.15341 7.73109 5.87696 7.45464C5.60051 7.17819 5.15229 7.17819 4.87588 7.45464L3.20738 9.12311C2.93093 9.39956 2.93093 9.84779 3.20738 10.1242L4.87588 11.7927C5.15229 12.0692 5.60051 12.0692 5.87696 11.7927C6.15341 11.5163 6.15341 11.068 5.87696 10.7916L5.41689 10.3315H9.38768ZM10.1242 7.54543L11.7927 5.87694C12.0692 5.6005 12.0692 5.1523 11.7927 4.87585L10.1242 3.20737C9.8478 2.93093 9.3996 2.93093 9.12315 3.20737C8.84671 3.48381 8.84671 3.93202 9.12315 4.20846L9.58321 4.66852H5.6124C5.22147 4.66852 4.90453 4.98545 4.90453 5.3764C4.90453 5.76735 5.22147 6.08428 5.6124 6.08428H9.58321L9.12315 6.54435C8.84671 6.82076 8.84671 7.26899 9.12315 7.54543C9.3996 7.82188 9.84779 7.82188 10.1242 7.54543Z" fill="#444444"/>
</svg>
