<svg width="19" height="16" viewBox="0 0 19 16" fill="none" xmlns="http://www.w3.org/2000/svg">
<path fill-rule="evenodd" clip-rule="evenodd" d="M17.49 4.90513C17.4381 4.90207 17.3816 4.90209 17.3231 4.90211L15.0115 4.90212C13.1182 4.90212 11.4982 6.29717 11.4982 8.11639C11.4982 9.93559 13.1182 11.3307 15.0115 11.3307H17.3231C17.3816 11.3307 17.4381 11.3308 17.49 11.3277C18.259 11.2822 18.9391 10.7189 18.9963 9.932C19.0001 9.88039 19 9.82477 19 9.77325V6.45956C19 6.40801 19.0001 6.35239 18.9963 6.30079C18.9391 5.51395 18.259 4.9506 17.49 4.90513ZM14.8078 8.97354C15.2952 8.97354 15.6903 8.58979 15.6903 8.11639C15.6903 7.64299 15.2952 7.25925 14.8078 7.25925C14.3204 7.25925 13.9252 7.64299 13.9252 8.11639C13.9252 8.58979 14.3204 8.97354 14.8078 8.97354Z" fill="#444444"/>
<path fill-rule="evenodd" clip-rule="evenodd" d="M17.3224 12.6164C17.4589 12.6131 17.5623 12.7314 17.5252 12.8545C17.3415 13.4651 17.0496 13.9857 16.5816 14.4239C15.8963 15.0653 15.0273 15.35 13.9538 15.4852C12.9107 15.6164 11.5778 15.6164 9.89502 15.6164H7.9604C6.27763 15.6164 4.94475 15.6164 3.90162 15.4852C2.82808 15.35 1.95916 15.0653 1.27391 14.4239C0.588661 13.7825 0.284552 12.969 0.140225 11.9641C-2.69963e-05 10.9877 -1.78983e-05 9.73999 4.1494e-07 8.16474V8.06805C-1.78983e-05 6.49282 -2.69963e-05 5.24513 0.140225 4.26866C0.284552 3.26373 0.588661 2.45035 1.27391 1.80889C1.95916 1.16743 2.82808 0.88276 3.90162 0.747657C4.94475 0.616369 6.27762 0.616377 7.9604 0.616394H9.89502C11.5778 0.616377 12.9107 0.616369 13.9538 0.747657C15.0273 0.88276 15.8963 1.16743 16.5816 1.80889C17.0496 2.24713 17.3414 2.7676 17.5252 3.37826C17.5623 3.50132 17.4589 3.61971 17.3224 3.61639L15.0114 3.6164C12.414 3.6164 10.1246 5.53717 10.1246 8.11639C10.1246 10.6956 12.414 12.6164 15.0114 12.6164H17.3224ZM3.43374 4.04497C3.05446 4.04497 2.74699 4.33279 2.74699 4.68782C2.74699 5.04286 3.05446 5.33068 3.43374 5.33068H7.09639C7.47565 5.33068 7.78313 5.04286 7.78313 4.68782C7.78313 4.33279 7.47565 4.04497 7.09639 4.04497H3.43374Z" fill="#444444"/>
</svg>
