<svg width="17" height="18" viewBox="0 0 17 18" fill="none" xmlns="http://www.w3.org/2000/svg">
<path d="M13.2217 5.40756C13.1621 5.39926 13.1026 5.39926 13.043 5.40756C11.7236 5.36604 10.6766 4.31149 10.6766 3.01613C10.6766 1.69586 11.7747 0.616394 13.1366 0.616394C14.49 0.616394 15.5966 1.68756 15.5966 3.01613C15.5881 4.31149 14.5411 5.36604 13.2217 5.40756Z" fill="#444444"/>
<path d="M15.9988 11.1623C15.0454 11.785 13.709 12.0175 12.4748 11.8598C12.7983 11.1789 12.9685 10.4233 12.977 9.62611C12.977 8.79575 12.7897 8.00691 12.4322 7.31771C13.692 7.15164 15.0284 7.38414 15.9903 8.00691C17.3352 8.87048 17.3352 10.2904 15.9988 11.1623Z" fill="#444444"/>
<path d="M3.7828 5.40756C3.84238 5.39926 3.90197 5.39926 3.96155 5.40756C5.28092 5.36604 6.32789 4.31149 6.32789 3.01613C6.32789 1.68756 5.22984 0.616394 3.86792 0.616394C2.51451 0.616394 1.41646 1.68756 1.41646 3.01613C1.41646 4.31149 2.46344 5.36604 3.7828 5.40756Z" fill="#444444"/>
<path d="M3.87722 9.62627C3.87722 10.4317 4.05598 11.1957 4.37943 11.8848C3.17924 12.0094 1.92797 11.7603 1.00867 11.1707C-0.336225 10.2989 -0.336225 8.87895 1.00867 8.00708C1.91946 7.40922 3.20477 7.16841 4.41348 7.30127C4.06449 7.99877 3.87722 8.78761 3.87722 9.62627Z" fill="#444444"/>
<path d="M8.61817 12.1335C8.55007 12.1252 8.47346 12.1252 8.39685 12.1335C6.83064 12.0836 5.57936 10.8298 5.57936 9.28533C5.58787 7.70765 6.89023 6.4289 8.51602 6.4289C10.1333 6.4289 11.4442 7.70765 11.4442 9.28533C11.4356 10.8298 10.1929 12.0836 8.61817 12.1335Z" fill="#444444"/>
<path d="M5.85175 13.8528C4.56643 14.6915 4.56643 16.0699 5.85175 16.9002C7.31583 17.8551 9.71622 17.8551 11.1803 16.9002C12.4656 16.0615 12.4656 14.6832 11.1803 13.8528C9.72473 12.8979 7.32434 12.8979 5.85175 13.8528Z" fill="#444444"/>
</svg>
